#!OML:ASF F:\VICON\USERDATA\INSTALL\rory3\rory3.ASF
:FULLY-SPECIFIED
:DEGREES
47
root -14.1068 18.5188 -0.445112 0.260716 -6.05852 0.11031
lowerback 5.37415 0.513315 1.0211
upperback 0.989213 0.740041 -0.0174824
thorax -1.98164 0.362425 -0.642466
lowerneck -10.6603 1.77681 -5.74477
upperneck 25.4387 1.91662 6.99319
head 9.6257 1.11501 3.64232
rclavicle 1.28278e-014 -1.41137e-014
rhumerus -34.4218 -2.2974 -79.64
rradius 25.033
rwrist 19.579
rhand -24.2497 2.8587
rfingers 7.12502
rthumb 2.23617 -27.1093
lclavicle 1.28278e-014 -1.41137e-014
lhumerus -32.3636 19.104 75.9961
lradius 24.3976
lwrist -4.38413
lhand -22.5647 24.8937
lfingers 7.12502
lthumb 3.86343 54.8384
rfemur -6.11806 15.7877 25.9331
rtibia 26.8003
rfoot -19.4776 -7.1301
rtoes 7.42881
lfemur -22.556 9.01079 -14.2185
ltibia 49.7687
lfoot -8.96846 -1.07201
ltoes -11.9109
48
root -14.1053 18.526 -0.431206 0.249253 -5.87464 0.274963
lowerback 5.43225 0.579821 0.937542
upperback 0.99279 0.82315 -0.0758341
thorax -2.00921 0.404116 -0.661986
lowerneck -10.7584 2.00084 -5.44416
upperneck 25.7755 2.20835 6.8316
head 9.75005 1.26082 3.5788
rclavicle 6.34869e-015 -2.68359e-015
rhumerus -34.5091 -2.2505 -79.6425
rradius 25.0685
rwrist 19.5753
rhand -24.4446 3.12235
rfingers 7.12502
rthumb 2.04801 -26.8476
lclavicle 6.34869e-015 -2.68359e-015
lhumerus -32.5439 19.2258 75.8635
lradius 24.3264
lwrist -4.13117
lhand -22.728 24.6066
lfingers 7.12502
lthumb 3.70572 54.5542
rfemur -6.08689 15.6932 25.7551
rtibia 26.8411
rfoot -19.6116 -7.17612
rtoes 7.51083
lfemur -22.9411 9.27031 -14.4606
ltibia 49.78
lfoot -9.13317 -1.22614
ltoes -11.469
49
root -14.1043 18.5319 -0.41811 0.221119 -5.74379 0.40159
lowerback 5.54153 0.688083 0.88539
upperback 1.0004 0.963569 -0.151066
thorax -2.05945 0.47403 -0.721382
lowerneck -10.7259 2.19614 -5.09813
upperneck 25.9842 2.45201 6.65369
head 9.81001 1.3865 3.48928
rclavicle -6.22444e-015 1.2424e-014
rhumerus -34.5568 -2.44206 -79.6298
rradius 24.9878
rwrist 19.7706
rhand -24.6969 2.84246
rfingers 7.12502
rthumb 1.80429 -27.1297
lclavicle -6.22444e-015 1.2424e-014
lhumerus -32.7937 19.2534 75.6751
lradius 24.3221
lwrist -4.23864
lhand -22.9797 23.8777
lfingers 7.12502
lthumb 3.46272 53.8293
rfemur -6.04508 15.5584 25.6249
rtibia 26.8856
rfoot -19.7159 -7.25633
rtoes 7.20904
lfemur -23.2439 9.65089 -14.6575
ltibia 49.6527
lfoot -9.2186 -1.03641
ltoes -11.6132
50
root -14.1024 18.5336 -0.403742 0.194799 -5.67595 0.524206
lowerback 5.63909 0.801143 0.814314
upperback 1.02546 1.10919 -0.211306
thorax -2.0856 0.546874 -0.7552
lowerneck -10.6719 2.36249 -4.92265
upperneck 26.1414 2.67185 6.55527
head 9.84571 1.49372 3.45223
rclavicle 5.64051e-015 -1.49089e-015
rhumerus -34.5483 -2.48393 -79.6631
rradius 24.8969
rwrist 19.7956
rhand -24.8282 2.53414
rfingers 7.12502
rthumb 1.67745 -27.439
lclavicle 5.64051e-015 -1.49089e-015
lhumerus -33.0427 19.348 75.4906
lradius 24.3686
lwrist -4.5359
lhand -22.8939 23.8255
lfingers 7.12502
lthumb 3.54555 53.7758
rfemur -5.99982 15.4533 25.4975
rtibia 26.9222
rfoot -19.8206 -7.31038
rtoes 6.60598
lfemur -23.5036 10.1377 -14.8541
ltibia 49.4372
lfoot -9.34418 -0.669714
ltoes -11.6392
51
root -14.1021 18.533 -0.388029 0.138602 -5.5449 0.68981
lowerback 5.77453 0.880511 0.640179
upperback 1.04238 1.20469 -0.232282
thorax -2.14521 0.59528 -0.68832
lowerneck -10.6966 2.50073 -4.88849
upperneck 26.3167 2.86778 6.52566
head 9.90136 1.58437 3.46392
rclavicle 9.93923e-016 -5.56597e-015
rhumerus -34.5403 -2.24243 -79.7192
rradius 24.8302
rwrist 19.6234
rhand -24.9117 2.31264
rfingers 7.12502
rthumb 1.59686 -27.6611
lclavicle 9.93923e-016 -5.56597e-015
lhumerus -33.2036 19.4939 75.3618
lradius 24.2708
lwrist -4.6984
lhand -22.5842 24.2576
lfingers 7.12502
lthumb 3.84466 54.2026
rfemur -5.90515 15.3307 25.3442
rtibia 26.9467
rfoot -19.9106 -7.39162
rtoes 6.17746
lfemur -23.7197 10.5346 -15.1006
ltibia 49.1611
lfoot -9.54245 -0.323355
ltoes -11.0959
52
root -14.1026 18.5322 -0.371863 0.141829 -5.32829 0.732571
lowerback 5.81516 0.906513 0.575666
upperback 1.10881 1.23555 -0.225251
thorax -2.10059 0.611469 -0.64721
lowerneck -10.8846 2.62504 -4.85273
upperneck 26.5152 3.05143 6.49114
head 9.99849 1.66976 3.47774
rclavicle -2.18663e-015 4.96962e-015
rhumerus -34.4154 -2.06054 -79.7471
rradius 24.7691
rwrist 19.5805
rhand -24.9149 2.17836
rfingers 7.12502
rthumb 1.59373 -27.7954
lclavicle -2.18663e-015 4.96962e-015
lhumerus -33.1835 19.8367 75.2078
lradius 24.0643
lwrist -4.78241
lhand -22.6087 24.0565
lfingers 7.12502
lthumb 3.821 54.002
rfemur -5.82602 15.2548 25.3319
rtibia 26.9471
rfoot -19.9736 -7.60204
rtoes 6.00074
lfemur -23.9951 10.8958 -15.2285
ltibia 48.8462
lfoot -9.66167 -0.0443898
ltoes -10.6508
53
root -14.1015 18.5363 -0.350477 0.177706 -5.01542 0.811267
lowerback 5.73467 0.929178 0.556192
upperback 1.21614 1.26242 -0.293357
thorax -1.94377 0.62587 -0.705445
lowerneck -11.1026 2.69844 -4.86585
upperneck 26.6895 3.14216 6.58388
head 10.0952 1.72222 3.53555
rclavicle -1.09083e-014 1.53064e-014
rhumerus -34.3113 -2.0711 -79.7933
rradius 24.7829
rwrist 19.5852
rhand -25.2151 2.10218
rfingers 7.12502
rthumb 1.3038 -27.8736
lclavicle -1.09083e-014 1.53064e-014
lhumerus -33.1144 20.0114 75.0805
lradius 23.9248
lwrist -4.62944
lhand -22.7207 23.7729
lfingers 7.12502
lthumb 3.71282 53.7203
rfemur -5.74181 15.0761 25.266
rtibia 26.9161
rfoot -20.0782 -7.89173
rtoes 5.46217
lfemur -24.2702 11.1959 -15.413
ltibia 48.4867
lfoot -9.87319 0.296338
ltoes -10.4901
54
root -14.0998 18.5391 -0.329852 0.207853 -4.67388 0.847269
lowerback 5.70455 0.970597 0.595524
upperback 1.31398 1.31784 -0.376867
thorax -1.82264 0.654113 -0.815458
lowerneck -11.2551 2.72906 -4.7518
upperneck 26.7401 3.18088 6.53747
head 10.1444 1.74788 3.51016
rclavicle -1.88908e-014 -1.0635e-014
rhumerus -34.1373 -2.17942 -79.858
rradius 24.6401
rwrist 19.4875
rhand -25.3956 2.24041
rfingers 7.12502
rthumb 1.12949 -27.7363
lclavicle -1.88908e-014 -1.0635e-014
lhumerus -33.0775 19.9084 75.0295
lradius 23.8599
lwrist -4.25055
lhand -22.7417 23.692
lfingers 7.12502
lthumb 3.69255 53.6398
rfemur -5.62564 15.02 25.2687
rtibia 26.8278
rfoot -20.1706 -8.32389
rtoes 4.72446
lfemur -24.5079 11.4152 -15.5634
ltibia 48.0736
lfoot -10.1519 0.868688
ltoes -10.542
55
root -14.0963 18.5393 -0.308629 0.205449 -4.35822 0.840183
lowerback 5.76559 1.01106 0.65675
upperback 1.33888 1.37462 -0.423415
thorax -1.82745 0.682226 -0.902582
lowerneck -11.1495 2.75774 -4.636
upperneck 26.6737 3.22722 6.41902
head 10.1021 1.76783 3.44786
rclavicle -4.32357e-015 7.25564e-015
rhumerus -34.1477 -2.43677 -79.8195
rradius 24.5204
rwrist 19.5591
rhand -25.1832 2.27737
rfingers 7.12502
rthumb 1.33466 -27.6982
lclavicle -4.32357e-015 7.25564e-015
lhumerus -33.3151 19.7234 74.9652
lradius 23.9286
lwrist -4.00036
lhand -22.9176 23.7095
lfingers 7.12502
lthumb 3.52267 53.6601
rfemur -5.46084 14.9247 25.3062
rtibia 26.7108
rfoot -20.2082 -8.65034
rtoes 4.11171
lfemur -24.6734 11.665 -15.6885
ltibia 47.5646
lfoot -10.3696 1.81593
ltoes -10.7515
56
root -14.0919 18.5396 -0.287944 0.201881 -4.04814 0.793391
lowerback 5.8662 1.04788 0.771314
upperback 1.34274 1.43014 -0.466294
thorax -1.87454 0.709169 -1.01699
lowerneck -10.9399 2.80425 -4.64247
upperneck 26.5142 3.27973 6.46654
head 9.99848 1.79767 3.45949
rclavicle 2.85132e-015 -1.5207e-014
rhumerus -34.2665 -2.54228 -79.8301
rradius 24.5494
rwrist 19.5568
rhand -24.8854 2.29591
rfingers 7.12502
rthumb 1.62227 -27.6777
lclavicle 2.85132e-015 -1.5207e-014
lhumerus -33.5869 19.6303 74.8239
lradius 23.9609
lwrist -3.87694
lhand -23.1111 23.8748
lfingers 7.12502
lthumb 3.33583 53.8284
rfemur -5.2971 14.7209 25.3691
rtibia 26.5835
rfoot -19.8908 -9.06762
rtoes 1.15744
lfemur -24.8191 11.9517 -15.7787
ltibia 46.9032
lfoot -10.5476 2.84031
ltoes -11.0546
57
root -14.0898 18.5395 -0.270853 0.27039 -3.75625 0.757592
lowerback 5.9214 1.08479 0.851184
upperback 1.35965 1.48302 -0.533315
thorax -1.88288 0.73519 -1.13551
lowerneck -10.8893 2.77949 -4.70672
upperneck 26.3979 3.22148 6.61823
head 9.9451 1.78307 3.5121
rclavicle -2.89791e-015 1.69464e-014
rhumerus -34.4056 -2.37428 -80.0179
rradius 24.7065
rwrist 19.1386
rhand -25.0502 2.55282
rfingers 7.12502
rthumb 1.46312 -27.4219
lclavicle -2.89791e-015 1.69464e-014
lhumerus -33.7535 19.6935 74.5966
lradius 23.9186
lwrist -3.86775
lhand -23.1625 24.0038
lfingers 7.12502
lthumb 3.2862 53.9582
rfemur -5.21672 14.5892 25.4118
rtibia 26.4326
rfoot -20.0176 -9.09053
rtoes 2.4138
lfemur -25.0587 12.1736 -15.8675
ltibia 46.1173
lfoot -10.6795 3.71668
ltoes -11.0992
58
root -14.0884 18.5454 -0.247202 0.381625 -3.34838 0.873585
lowerback 5.85387 1.06619 0.699353
upperback 1.36002 1.44756 -0.591208
thorax -1.84804 0.718348 -1.10575
lowerneck -10.8342 2.72707 -4.6709
upperneck 26.3176 3.16794 6.51486
head 9.91266 1.75079 3.45925
rclavicle -1.07468e-015 -1.41883e-014
rhumerus -34.7113 -1.97252 -80.2076
rradius 25.012
rwrist 18.6931
rhand -25.5424 3.01861
rfingers 7.12502
rthumb 0.987705 -26.9588
lclavicle -1.07468e-015 -1.41883e-014
lhumerus -34.0369 19.9926 74.2832
lradius 23.8619
lwrist -4.0678
lhand -23.1069 23.8577
lfingers 7.12502
lthumb 3.33986 53.8112
rfemur -5.14799 14.3909 25.269
rtibia 26.2748
rfoot -20.1951 -9.23573
rtoes 2.53539
lfemur -25.3212 12.1795 -16.1155
ltibia 45.2552
lfoot -11.1695 4.63101
ltoes -15.5735
59
root -14.0894 18.5495 -0.224274 0.468205 -2.85054 0.911134
lowerback 5.81846 1.01325 0.514525
upperback 1.3727 1.36668 -0.558915
thorax -1.82234 0.678981 -0.962143
lowerneck -10.7567 2.73859 -4.66756
upperneck 26.1783 3.22148 6.37735
head 9.84771 1.76153 3.40845
rclavicle 3.19298e-015 4.47266e-015
rhumerus -34.8912 -1.66612 -80.2658
rradius 25.1351
rwrist 18.5165
rhand -25.7667 3.1607
rfingers 7.12502
rthumb 0.771047 -26.8176
lclavicle 3.19298e-015 4.47266e-015
lhumerus -34.3338 20.4171 73.9934
lradius 23.761
lwrist -4.34604
lhand -23.0455 23.3669
lfingers 7.12502
lthumb 3.39917 53.3195
rfemur -5.05021 14.1981 25.2536
rtibia 26.1436
rfoot -20.3046 -9.60315
rtoes 2.10588
lfemur -25.5526 12.2253 -16.2981
ltibia 44.4016
lfoot -11.1035 5.65739
ltoes -14.2117
60
root -14.0898 18.5456 -0.208151 0.566533 -2.42938 0.794751
lowerback 5.87846 1.0063 0.554304
upperback 1.38057 1.36006 -0.558641
thorax -1.8469 0.67545 -0.984859
lowerneck -10.824 2.67379 -4.68131
upperneck 26.1291 3.14317 6.36028
head 9.84853 1.72361 3.39665
rclavicle -5.27711e-015 9.80257e-015
rhumerus -34.8935 -1.64712 -80.3581
rradius 25.0917
rwrist 18.4684
rhand -25.6648 2.55628
rfingers 7.12502
rthumb 0.869445 -27.4217
lclavicle -5.27711e-015 9.80257e-015
lhumerus -34.4876 20.425 73.8354
lradius 23.6992
lwrist -4.33527
lhand -22.9506 23.3821
lfingers 7.12502
lthumb 3.49079 53.3332
rfemur -4.98913 14.1462 25.4223
rtibia 26.0037
rfoot -20.3398 -10.0776
rtoes 2.31904
lfemur -25.7777 12.5097 -16.3763
ltibia 43.5874
lfoot -10.8708 6.72427
ltoes -7.42688
61
root -14.0891 18.5446 -0.186711 0.581429 -2.05579 0.67154
lowerback 5.94446 1.03129 0.627193
upperback 1.44719 1.39779 -0.570965
thorax -1.81234 0.694434 -1.04168
lowerneck -10.8783 2.55314 -4.71783
upperneck 26.0392 2.98841 6.35344
head 9.83663 1.64941 3.38239
rclavicle -1.23922e-014 -1.09456e-014
rhumerus -34.8554 -1.62273 -80.477
rradius 25.0942
rwrist 18.5124
rhand -25.6707 1.83683
rfingers 7.12502
rthumb 0.863755 -28.1412
lclavicle -1.23922e-014 -1.09456e-014
lhumerus -34.5114 20.3461 73.7323
lradius 23.6211
lwrist -4.36112
lhand -22.9021 23.9118
lfingers 7.12502
lthumb 3.53767 53.8622
rfemur -4.84359 14.0485 25.5977
rtibia 25.8441
rfoot -20.3469 -10.3899
rtoes 2.47612
lfemur -25.8785 12.8524 -16.4426
ltibia 42.7889
lfoot -11.0219 7.6147
ltoes -6.64141
